<?xml version="1.0" encoding="UTF-8"?>
<svg width="43px" height="43px" viewBox="0 0 43 43" version="1.1" xmlns="http://www.w3.org/2000/svg" xmlns:xlink="http://www.w3.org/1999/xlink">
    <!-- Generator: Sketch 51.3 (57544) - http://www.bohemiancoding.com/sketch -->
    <title>favicon</title>
    <desc>Created with Sketch.</desc>
    <defs>
        <linearGradient x1="67.9837458%" y1="78.6065727%" x2="9.16751059%" y2="15.9828039%" id="linearGradient-1">
            <stop stop-color="#057CA0" offset="0%"></stop>
            <stop stop-color="#15FDD9" offset="100%"></stop>
        </linearGradient>
    </defs>
    <g id="Page-1" stroke="none" stroke-width="1" fill="none" fill-rule="evenodd">
        <path d="M9.14804828,38.6700004 C6.61655884,39.1735762 4.50875515,38.4665643 3.02487268,36.5551093 C2.4218595,35.7840433 1.83795319,34.9237722 1.16827798,33.8289131 C0.572153492,32.8821272 0.568898878,31.8013763 1.11261684,30.7304167 C1.4354753,30.0944834 2.2311678,29.8676764 2.840799,30.2378096 C3.62299582,30.7127148 3.95298225,31.2838688 4.18598577,32.3518243 C4.4952906,33.6519556 5.23794684,34.5696485 6.5654917,35.2997997 C7.21197041,35.6541198 7.8924665,35.6685773 8.89651765,35.3243632 C8.9829546,35.2940344 8.9920911,35.2810033 9.00542184,35.0951327 C9.05824742,34.4480192 8.88136524,34.0780916 8.31687427,33.6971412 C7.45461487,33.0852152 6.6922356,32.4385483 5.4231527,31.256847 C4.42274274,30.4177935 4.07393528,29.3701126 4.83723208,28.3825615 C5.39680714,27.6364614 6.22659036,27.4811752 7.09434129,27.8182543 C7.19817156,27.8585873 7.29023208,27.8993444 7.43644206,27.9685871 C7.52975078,28.0129693 7.56189545,28.0280348 7.60159473,28.0459219 C9.08503851,28.7240676 10.173627,29.6703544 10.812346,30.8879605 C11.2750485,31.7331635 11.9743934,32.1487326 13.5763402,32.4885462 C15.1568769,32.8292607 16.8598091,32.8643692 18.6059983,32.5934267 C19.0700844,32.5188415 19.6046868,32.3551938 20.0586703,32.1547709 C20.3467475,32.0107323 20.5229927,31.7955678 20.5878391,31.5388543 C20.7789632,30.6448869 19.953663,29.3629617 19.1012102,29.2052934 C18.9092162,29.1685286 18.7094231,29.1529631 18.2898733,29.1442821 C17.9655127,29.1379679 17.8721003,29.1355426 17.6999572,29.1273032 C17.2753651,29.0919205 16.8449071,29.0602011 16.1959362,29.0162104 C16.0773608,29.0081993 16.0773608,29.0081993 16.0063795,29.0034147 C15.9350086,28.998615 15.9350086,28.998615 15.8165883,28.9906696 C14.8007484,28.922521 14.4064689,28.8940983 13.8614557,28.8487961 C12.9900642,28.7586522 12.0575124,28.6188027 11.0131298,28.4242767 C10.9061418,28.4064454 10.8002151,28.3809319 10.6936779,28.3479134 C10.4644778,28.2768785 10.2848526,28.1957618 9.87402402,27.9897192 C9.81572156,27.9620617 9.76606198,27.9397032 9.71917864,27.9199628 C9.08279582,27.6520121 8.79346753,26.9113456 9.07972151,26.2829832 C9.57962428,25.1856356 10.3094911,24.6634776 11.604619,24.3576515 C11.7112832,24.3327798 11.7112832,24.3327798 11.7546051,24.3227932 C14.1060644,23.7748803 16.4968136,24.1291332 18.8110224,25.3309889 C19.6908835,25.7863557 20.5669685,25.9149664 21.8061595,25.7675416 C24.1272891,25.4611525 26.4203273,24.6699469 28.809868,23.3606248 C29.0398536,23.2332003 29.2455173,23.126147 29.6506406,22.9220981 C30.4616383,22.5137622 30.7502914,22.3536596 31.0681734,22.1371446 C31.464753,21.8644962 31.8377021,21.4974889 32.1183702,21.1013374 C32.3350756,20.8012837 32.3223882,20.3785474 32.0677066,20.0356873 C31.8824975,19.7887418 31.7469421,19.7495882 31.4605799,19.8588456 C31.2379209,19.9449934 31.0024268,20.0368095 30.7013048,20.154842 C30.5469916,20.2153735 30.5469916,20.2153735 30.4545249,20.2516598 C30.3618321,20.2880497 30.3618321,20.2880497 30.207184,20.3487874 C28.0838087,21.1826392 27.1566609,21.5256164 26.0100453,21.8967131 C22.3839345,23.1100655 19.6675004,23.4623668 16.8828602,23.00486 C16.6518934,22.9652657 16.4587266,22.9448868 15.9363737,22.9052217 C15.2593919,22.8535333 14.9417057,22.8168484 14.5931472,22.7470061 C12.7523413,22.4061161 12.1752225,20.5633322 13.5763136,19.2583572 C14.2052239,18.7109723 14.9645122,18.2461575 15.8498477,17.8571743 C18.0952457,16.8875706 20.5501899,16.3077671 23.5289951,16.0199006 C25.0197909,15.87792 26.4019492,15.8014836 27.6807597,15.7917281 C28.6785567,15.7643912 29.5650167,15.8658985 30.3552713,16.1099587 C31.1068136,16.338689 31.6768979,16.2097632 32.4512886,15.6084047 C32.5752807,15.5133743 32.7048645,15.4147199 32.8798992,15.2820549 C32.9652616,15.2173911 32.9652616,15.2173911 33.0165221,15.1785669 C33.0677078,15.1398058 33.0677078,15.1398058 33.1526682,15.0754795 C34.9410269,13.7210568 35.6529313,13.0917828 36.3786241,12.2171619 C37.5135158,10.8203721 38.3173287,9.46704562 38.8313847,8.08475104 C38.856448,8.01433506 38.8792726,7.9426525 38.9018538,7.86138737 C38.680319,7.92247464 38.435134,7.99108587 38.1457528,8.07285682 C37.9876005,8.11761109 37.9876005,8.11761109 37.8928948,8.14443294 C37.7977561,8.17139942 37.7977561,8.17139942 37.6390225,8.21642824 C36.4729922,8.54712856 35.9432091,8.69213146 35.3115233,8.85238456 C34.6946507,9.01308248 34.1120074,9.14503542 33.0573998,9.36490057 C32.9709888,9.38289864 32.9709888,9.38289864 32.9190274,9.39371527 C32.8670574,9.40452761 32.8670574,9.40452761 32.7808713,9.42244849 C32.0811173,9.56796435 31.783542,9.63148029 31.4184347,9.71360742 C30.8883251,9.82956888 30.6158977,9.89092329 29.375565,10.1734701 C28.3786742,10.4005611 27.8614269,10.5161887 27.2761745,10.6420999 C26.9580098,10.7049866 26.702969,10.74583 26.1144523,10.8296158 C25.9008029,10.8600127 25.8164795,10.872186 25.7118383,10.8877758 C25.2706446,10.9535062 24.9690949,11.0094448 24.6853874,11.0786334 C24.2048476,11.1939629 23.8728959,11.2726713 22.8712241,11.5089001 C19.7173701,12.2526881 18.4091161,12.5836227 16.7955796,13.0501836 C14.0359706,13.8554788 11.3726824,15.1823813 8.89620715,16.9740822 C8.72511432,17.1071544 8.56226049,17.2206148 8.25582056,17.4225046 C7.99307022,17.5956108 7.98123217,17.6035044 7.87082184,17.6792687 C6.45916617,18.6060045 5.34804759,19.6015211 4.4659548,20.7356316 C4.32316601,20.9180839 4.16533851,21.0992166 3.97755088,21.2975203 C3.89418154,21.3855584 3.73288038,21.5480018 3.48114579,21.7988141 C3.50664162,21.7734148 3.01014278,22.2671297 2.97340025,22.3045926 C2.37951226,22.9101255 1.36482778,22.7435306 0.995735751,21.9798919 C0.521027924,20.9977378 0.672268334,20.2025819 1.3890391,19.3265684 C2.64484613,17.8105491 4.04047542,16.4998908 5.6072878,15.366455 C10.1518372,12.0653296 15.153046,9.87500276 20.626011,8.79135824 C21.3272699,8.6539771 21.8907356,8.54526751 23.2486566,8.28519321 C23.7832286,8.18281252 23.9972285,8.14178526 24.2662943,8.09008551 C27.6031835,7.44891757 29.5053586,7.05482667 31.4851966,6.59035193 C33.091291,6.21750858 34.3715413,5.86645895 37.4933092,4.94799685 C38.0547809,4.78280503 38.23641,4.72945492 38.5033919,4.65132799 C39.2116899,4.4440587 39.7609311,4.28586736 40.3152676,4.1303236 C40.5659986,4.06764084 40.781374,4.02062243 40.9838385,3.98489339 C41.1218631,3.96053611 41.2635303,3.96643393 41.3990527,4.00217937 L41.607262,4.05709676 C41.7427844,4.09284221 41.8689311,4.1575831 41.976987,4.24684665 C42.374382,4.57512946 42.62482,4.99834328 42.6923176,5.48682248 C42.7380807,5.81801008 42.7068622,6.07054011 42.5986535,6.47862407 C42.5709118,6.5832456 42.5669773,6.59984133 42.5614497,6.63231733 C41.7778442,10.9421475 39.3866272,14.4623592 35.3211164,17.4428986 C34.9177789,17.737226 34.7570021,17.8546419 34.629991,17.9486811 C35.9071441,19.7766026 35.8000465,21.8474478 34.3022065,23.5283305 C33.6668973,24.2050729 32.9847867,24.7521012 32.3180759,25.1081769 C28.6242975,27.1755902 25.9563364,28.2129736 23.1012138,28.6262652 C25.023574,31.6471866 23.3468369,35.0976374 19.6398154,35.5515087 C16.6178044,35.8946192 14.3995177,35.8573074 12.2766497,35.3866974 C11.9648775,37.2132169 10.8961488,38.3114392 9.14804828,38.6700004 Z M15.846308,20.670882 C17.9490174,21.2080661 20.2116176,21.1807139 22.8431505,20.6844161 C25.1088382,20.2565609 28.6712639,18.9007988 29.6763805,18.1347721 C29.5748153,18.075931 29.4272634,18.0581755 29.1641633,18.0517502 C29.1171712,18.0506045 29.1171712,18.0506045 29.0686376,18.0491491 C28.9917839,18.0466274 28.9292668,18.0430122 28.8704637,18.0371206 C26.5761248,17.8293655 24.4189362,18.0364556 20.9491863,18.6610103 C19.4277558,18.9326944 18.0401308,19.372673 16.7748283,20.0002163 C16.6159257,20.0754859 16.4654293,20.1699408 16.2394494,20.3297409 C16.1585173,20.387255 16.1585173,20.387255 16.0757172,20.4463832 C15.9791118,20.5152015 15.9009035,20.5697708 15.8292002,20.6176509 C15.8383962,20.6460594 15.839528,20.6495562 15.846308,20.670882 Z M12.130691,26.8070964 C13.7381972,27.432837 16.0002282,27.6167138 17.0545637,27.2112002 C17.2523449,27.1351305 17.2781122,26.8657811 17.0983406,26.7535928 C15.5956591,25.8158292 13.5703163,25.6352253 12.1125445,26.3362912 C11.910116,26.4336423 11.9213697,26.7256156 12.130691,26.8070964 Z" id="Shape" fill="url(#linearGradient-1)" fill-rule="nonzero"></path>
    </g>
</svg>