<?xml version="1.0" encoding="UTF-8"?>
<svg width="158px" height="40px" viewBox="0 0 158 40" version="1.1" xmlns="http://www.w3.org/2000/svg" xmlns:xlink="http://www.w3.org/1999/xlink">
    <!-- Generator: Sketch 51.3 (57544) - http://www.bohemiancoding.com/sketch -->
    <title>logo</title>
    <desc>Created with Sketch.</desc>
    <defs>
        <linearGradient x1="67.9837458%" y1="78.6065727%" x2="8.44423894%" y2="15.2127104%" id="linearGradient-1">
            <stop stop-color="#057CA0" offset="0%"></stop>
            <stop stop-color="#15FDD9" offset="100%"></stop>
        </linearGradient>
    </defs>
    <g id="Page-1" stroke="none" stroke-width="1" fill="none" fill-rule="evenodd">
        <g id="Group-2">
            <path d="M10.3684053,31.7569118 C10.1313767,33.1553804 9.33899687,33.9685343 7.94214877,34.2550624 C5.71329211,34.6984371 3.90984703,34.1214507 2.60109618,32.4355994 C1.98769445,31.6512496 1.40205789,30.7819864 0.742163345,29.7032703 C0.320548567,29.0336469 0.323689482,28.28925 0.730111748,27.4887213 C0.800016173,27.3510307 0.972297319,27.3019231 1.10429298,27.3820633 C1.66908056,27.7249701 1.85842598,28.1117769 2.03970019,28.9420241 C2.43471656,30.6024351 3.41143201,31.7642124 4.9894232,32.6321079 C5.94931884,33.1582046 6.94954441,33.155806 8.20856352,32.7241494 C8.69503677,32.5534571 8.94672366,32.1837224 8.98663412,31.6251676 C9.06982142,30.6061232 8.72851406,29.8717239 7.85758067,29.2844855 C6.97427156,28.657621 6.19215303,27.9843769 4.93287793,26.8135223 C4.31990128,26.2994129 4.05653511,25.7658399 4.48514054,25.2112189 C4.78229643,24.8150111 5.17322453,24.7737464 5.65413814,24.960558 C5.73873374,24.9934193 5.81667125,25.0283167 5.94000877,25.086726 C6.03511784,25.1319646 6.0775797,25.1519682 6.12434991,25.1730199 C7.43685875,25.7730239 8.40983731,26.5943323 8.97893811,27.6789338 C9.64189112,28.889928 10.6658356,29.4402707 12.4999589,29.8293287 C14.2636558,30.2095268 16.1465203,30.2449497 18.0638786,29.9474325 C18.6369808,29.8553268 19.2718977,29.6593307 19.8526998,29.4014959 C20.4035876,29.126052 20.782188,28.670237 20.9299004,28.0800328 C21.2426465,26.6171878 20.0439899,24.7449345 18.604716,24.478762 C18.3302147,24.4261979 18.0644611,24.4077428 17.5981767,24.3980956 C17.2787737,24.3918779 17.1832058,24.3894993 17.0525079,24.383825 C16.5925146,24.3454922 16.1332211,24.3119492 15.4835525,24.2679112 C15.2875094,24.2546663 15.2875094,24.2546663 15.0912986,24.2415014 C14.0959487,24.1747274 13.6671359,24.1443057 13.1080469,24.0980434 C12.2176649,24.0059349 11.2752341,23.862815 10.2278623,23.6679075 C10.1623766,23.6569932 10.0967468,23.641076 10.0295744,23.6202576 C9.84819419,23.5640433 9.66774351,23.4783924 9.31562077,23.3020059 C9.24414558,23.2680996 9.17924471,23.2388064 9.11515784,23.2118224 C8.97736999,23.1538065 8.91472542,22.9934394 8.97670435,22.8573881 C9.37084348,21.9922047 9.90126983,21.6644369 10.902349,21.4280448 C10.9801116,21.4098345 10.9801116,21.4098345 11.0561724,21.392296 C13.274171,20.8754808 15.5016947,21.2282432 17.6573097,22.3477341 C18.7733043,22.9253102 19.8852591,23.0751824 21.341117,22.9018877 C23.9028805,22.5637349 26.3899562,21.6901863 28.9281576,20.2993943 C29.1613396,20.1701989 29.3727771,20.0607728 29.7615604,19.8649539 C30.6061557,19.4397016 30.9532344,19.2502024 31.3423725,18.9851403 C31.8474638,18.63789 32.3175433,18.1760095 32.6711415,17.6768314 C33.1586629,17.0018018 33.125611,16.0873651 32.6081381,15.3907624 C32.1496165,14.7794002 31.5380374,14.6016155 30.8202735,14.875496 C30.5825193,14.9674843 30.3352937,15.0639118 30.0317763,15.1828833 C29.7765439,15.2830018 29.7765439,15.2830018 29.5211074,15.3833239 C27.4454554,16.1984347 26.453694,16.5698636 25.2346054,16.9644684 C21.759527,18.1272831 19.0726654,18.5280438 16.2945476,18.0716323 C16.0066551,18.0222793 15.7674857,17.9985067 15.2242043,17.9572524 C14.5829716,17.9082936 14.2779065,17.8746937 13.9429109,17.807667 C12.8424904,17.6038855 12.5516528,16.7022887 13.3671842,15.9422587 C13.9461775,15.4383201 14.6496497,15.0128329 15.4551485,14.6589074 C17.7183048,13.6816354 20.172292,13.1202658 23.0843656,12.8388472 C24.5727553,12.6970958 25.9751686,12.6176622 27.3047889,12.6073254 C28.2116454,12.58248 29.0254937,12.6697786 29.7484134,12.8930355 C30.8619236,13.2319299 31.7830457,13.0116106 32.8126026,12.212068 C32.9429647,12.1121554 33.0774188,12.0098331 33.2507816,11.8784352 C33.391721,11.7716706 33.391721,11.7716706 33.5324071,11.6651524 C35.3515748,10.2873964 36.1878493,9.56943037 37.036467,8.5465647 C38.2534206,7.04877572 39.1504273,5.55730305 39.7356095,3.9834394 C39.8366363,3.69960201 39.9044584,3.41730033 40.0009475,2.91908666 C40.0820222,2.50046404 40.1204776,2.30154012 40.1485091,2.16684906 C40.0827879,2.17211759 40.0014948,2.17840558 39.8946168,2.18663049 C39.5680317,2.21176314 39.4120996,2.23202836 39.2524848,2.2768891 C38.8279476,2.38945579 38.398302,2.50825724 37.8131125,2.67361534 C37.5513329,2.74769429 37.5513329,2.74769429 37.2892121,2.82205153 C36.1479844,3.14571755 35.5809982,3.3019895 34.9061854,3.47320512 C34.2628487,3.64079704 33.6531251,3.77717307 32.626362,3.99123323 C32.4836535,4.02095718 32.4836535,4.02095718 32.3410808,4.05060267 C31.6466758,4.19500617 31.3174129,4.26492131 30.9238884,4.35345951 C30.353994,4.47812391 30.0422373,4.54857911 28.805648,4.8302732 C27.8257216,5.05349967 27.272875,5.17747779 26.6656526,5.30826415 C26.3451258,5.37161772 26.0820075,5.4127485 25.5189001,5.49291685 C25.307272,5.52302616 25.2123373,5.53668528 25.0965893,5.55392977 C24.6296625,5.62349397 24.2836632,5.68647644 23.9504785,5.76773915 C23.4358672,5.89124585 23.0687591,5.97817483 22.0806882,6.21119614 C18.9568689,6.94790084 17.5137576,7.30787013 15.7553112,7.81633573 C12.7740827,8.68630277 9.92206516,10.1150434 7.26321451,12.039456 C7.10496762,12.1625369 6.94796574,12.2708523 6.66562113,12.4568676 C6.39249583,12.636809 6.37367995,12.6492948 6.26936533,12.7211519 C4.74780483,13.720039 3.50912047,14.8181446 2.51418905,16.0973402 C2.38503001,16.2623767 2.24138402,16.4266315 2.07118468,16.606362 C1.88377409,16.8042676 1.16515163,17.512624 1.04628034,17.6338261 C0.917693353,17.7649344 0.697996668,17.7288637 0.618081879,17.5635228 C0.295555111,16.896226 0.41570167,16.4809368 0.894029653,15.8963214 C2.13520307,14.3979679 3.51429312,13.1016233 5.06814176,11.9775632 C9.64187175,8.65524118 14.6722287,6.45049342 20.1836743,5.35922774 C20.9364305,5.21175795 21.5508988,5.0933882 22.8881298,4.83727654 C23.4139638,4.73656934 23.6494337,4.69143636 23.9397155,4.63566004 C27.2502577,3.99955457 29.2936483,3.58065285 31.4326652,3.07883146 C33.1846067,2.67213076 34.5998654,2.2781694 37.6938235,1.36788927 C38.2480956,1.20481566 38.4494695,1.14564166 38.7356155,1.06190675 C39.4389126,0.856100884 40.010624,0.691205982 40.568562,0.534217007 C40.8033943,0.47550891 41.0040847,0.431521981 41.1902961,0.398661139 L41.4053299,0.455378536 C41.6315231,0.642233727 41.7566888,0.857943928 41.7904002,1.1019132 C41.817333,1.2968262 41.7934743,1.44711603 41.7176581,1.73303897 C41.6827691,1.86461487 41.67217,1.90810892 41.6619608,1.96918971 C40.8875968,6.22819173 38.5057062,9.62620991 34.5787147,12.5051998 C33.9374532,12.9731474 33.8867356,13.0103253 33.6309991,13.2021277 C33.5191875,13.2859863 33.413173,13.3664272 33.3086764,13.4467844 C33.2824446,13.4664582 33.2546469,13.4926772 33.2215206,13.5291496 C33.2042063,13.5482129 33.1494381,13.6145672 33.0921528,13.6837615 C33.1405714,13.7483324 33.1978585,13.8239534 33.2784143,13.929948 C33.4357712,14.1369966 33.5059475,14.2302571 33.595341,14.3525991 C34.6882942,15.8732296 34.6251934,17.5233162 33.3868044,18.9134467 C32.8140517,19.5235529 32.1933997,20.0281951 31.5783087,20.356894 C27.9006759,22.4152706 25.1680693,23.5107422 22.140361,23.9098312 C21.8959009,23.9474405 21.6143788,24.0230344 21.3207254,24.1243702 C21.2719767,24.1520246 21.2689489,24.1523229 21.1496209,24.2710873 C21.1780318,24.3299146 21.2082752,24.3939561 21.2423285,24.4671097 C21.3124749,24.6186289 21.3556191,24.7120023 21.3829035,24.7704377 C21.4373573,24.8870618 21.4828315,24.9818235 21.5282159,25.0724185 C21.5983418,25.212402 21.6657487,25.3370808 21.7311864,25.4472578 C23.2451073,27.8225475 22.0422136,30.6318863 18.8600902,31.0215238 C15.8062737,31.3682453 13.5198454,31.3406072 11.2761755,30.7969705 C11.1300382,30.7632465 10.9722869,30.7371417 10.7403782,30.7067037 C10.7040572,30.7019366 10.6198738,30.6913589 10.5323446,30.6804375 C10.4653189,31.1753313 10.4252521,31.4402547 10.3684053,31.7569118 Z M15.0550568,16.6467766 C17.2266859,17.2015678 19.5634465,17.1733191 22.2812322,16.6607543 C24.6211816,16.2188754 28.3003715,14.8186761 29.3384325,14.0275416 C29.2335383,13.9667719 29.0811501,13.9484344 28.8094265,13.9417986 C28.7608941,13.9406152 28.7608941,13.9406152 28.7107697,13.9391121 C28.6313971,13.9365078 28.5668309,13.9327741 28.5061004,13.9266894 C26.1365608,13.7121248 23.9086668,13.9260026 20.3251903,14.5710281 C18.7538924,14.851617 17.3207857,15.3060167 16.0140109,15.9541287 C15.8499,16.0318654 15.6944709,16.1294162 15.461084,16.2944541 C15.3774993,16.3538533 15.3774993,16.3538533 15.2919853,16.4149195 C15.1922135,16.4859934 15.1114417,16.5423513 15.0373883,16.5918008 C15.0468858,16.6211404 15.0480546,16.6247518 15.0550568,16.6467766 Z M11.2176545,22.9841154 C12.8778493,23.6303657 15.2140221,23.8202693 16.302915,23.4014643 C16.5071788,23.3229013 16.5337907,23.0447236 16.3481269,22.9288582 C14.7961925,21.9603578 12.7044658,21.7738344 11.1989131,22.4978788 C10.9898497,22.5984207 11.0014723,22.8999639 11.2176545,22.9841154 Z" id="Shape" fill="url(#linearGradient-1)" fill-rule="nonzero"></path>
            <g id="Group" transform="translate(45.000000, 5.000000)" fill="#000000">
                <path d="M10.1635954,0.925969973 L10.1635954,2.76596997 C9.63025944,2.47263517 9.03026544,2.32596997 8.36359544,2.32596997 C7.40359064,2.32596997 6.62359844,2.66596657 6.02359544,3.34596997 C5.42359244,4.02597337 5.12359544,4.96596397 5.12359544,6.16596997 L5.12359544,9.16596997 L9.28359544,9.16596997 L9.28359544,10.88597 L5.12359544,10.88597 L5.12359544,26.92597 L3.16359544,26.92597 L3.16359544,10.88597 L0.283595438,10.88597 L0.283595438,9.16596997 L3.16359544,9.16596997 L3.16359544,5.96596997 C3.16359544,4.36596197 3.63025744,3.06597497 4.56359544,2.06596997 C5.49693344,1.06596497 6.69692144,0.565969973 8.16359544,0.565969973 C8.88359904,0.565969973 9.55025904,0.685968773 10.1635954,0.925969973 Z" id="Path"></path>
                <polygon id="Path" points="14.4969287 0.925969973 14.4969287 26.92597 12.4969287 26.92597 12.4969287 0.925969973"></polygon>
                <path d="M29.670262,21.76597 L31.590262,21.76597 C31.2435936,23.4459784 30.4636014,24.785965 29.250262,25.78597 C28.0369226,26.785975 26.5236044,27.28597 24.710262,27.28597 C22.3635836,27.28597 20.4636026,26.4326452 19.010262,24.72597 C17.5569214,23.0192948 16.830262,20.7926504 16.830262,18.04597 C16.830262,15.3526232 17.5435882,13.139312 18.970262,11.40597 C20.3969358,9.67262797 22.2969168,8.80596997 24.670262,8.80596997 C26.9636068,8.80596997 28.7369224,9.59929537 29.990262,11.18597 C31.2436016,12.7726446 31.870262,14.8726236 31.870262,17.48597 L31.870262,18.20597 L18.790262,18.20597 C18.8169288,20.4459812 19.3769232,22.2259634 20.470262,23.54597 C21.5636008,24.8659766 22.97692,25.52597 24.710262,25.52597 C25.9636016,25.52597 27.0369242,25.19264 27.930262,24.52597 C28.8235998,23.8593 29.403594,22.9393092 29.670262,21.76597 Z M24.670262,10.56597 C23.070254,10.56597 21.7569338,11.1126312 20.730262,12.20597 C19.7035902,13.2993088 19.0835964,14.779294 18.870262,16.64597 L29.870262,16.64597 C29.8169284,14.9392948 29.3502664,13.4993092 28.470262,12.32597 C27.5902576,11.1526308 26.3236036,10.56597 24.670262,10.56597 Z" id="Combined-Shape"></path>
                <path d="M47.2035953,26.92597 L47.2035953,24.28597 C46.6702593,25.1126408 45.9036003,25.8193004 44.9035953,26.40597 C43.9035903,26.9926396 42.8302677,27.28597 41.6835953,27.28597 C39.1769161,27.28597 37.2569353,26.3993122 35.9235953,24.62597 C34.5902553,22.8526278 33.9235953,20.6593164 33.9235953,18.04597 C33.9235953,15.4326236 34.5902553,13.2393122 35.9235953,11.46597 C37.2569353,9.69262777 39.1769161,8.80596997 41.6835953,8.80596997 C42.8302677,8.80596997 43.9035903,9.09930037 44.9035953,9.68596997 C45.9036003,10.2726396 46.6702593,10.9792992 47.2035953,11.80597 L47.2035953,0.925969973 L49.1635953,0.925969973 L49.1635953,26.92597 L47.2035953,26.92597 Z M47.2035953,21.92597 L47.2035953,14.16597 C46.6169257,13.0459644 45.8502667,12.1793064 44.9035953,11.56597 C43.9569239,10.9526336 42.9369341,10.64597 41.8435953,10.64597 C40.0302529,10.64597 38.5902673,11.3326298 37.5235953,12.70597 C36.4569233,14.0793102 35.9235953,15.8592924 35.9235953,18.04597 C35.9235953,20.2326476 36.4569233,22.0126298 37.5235953,23.38597 C38.5902673,24.7593102 40.0302529,25.44597 41.8435953,25.44597 C42.9369341,25.44597 43.9569239,25.1393064 44.9035953,24.52597 C45.8502667,23.9126336 46.6169257,23.0459756 47.2035953,21.92597 Z" id="Combined-Shape"></path>
                <path d="M64.6569285,25.76597 L64.6569285,23.88597 C64.1235925,24.7126408 63.3636001,25.4059672 62.3769285,25.96597 C61.3902569,26.5259728 60.3236009,26.80597 59.1769285,26.80597 C56.7235829,26.80597 54.8369351,25.939312 53.5169285,24.20597 C52.1969219,22.472628 51.5369285,20.339316 51.5369285,17.80597 C51.5369285,15.272624 52.1969219,13.139312 53.5169285,11.40597 C54.8369351,9.67262797 56.7235829,8.80596997 59.1769285,8.80596997 C60.3236009,8.80596997 61.3902569,9.09263377 62.3769285,9.66596997 C63.3636001,10.2393062 64.1235925,10.9392992 64.6569285,11.76597 L64.6569285,9.16596997 L66.6569285,9.16596997 L66.6569285,25.64597 C66.6569285,28.3659836 65.9836019,30.4526294 64.6369285,31.90597 C63.2902551,33.3593106 61.4702733,34.08597 59.1769285,34.08597 C57.1502517,34.08597 55.5102681,33.6126414 54.2569285,32.66597 C53.0035889,31.7192986 52.2169301,30.3926452 51.8969285,28.68597 L53.8969285,28.68597 C54.4835981,31.1393156 56.2435805,32.36597 59.1769285,32.36597 C60.9369373,32.36597 62.2902571,31.8059756 63.2369285,30.68597 C64.1835999,29.5659644 64.6569285,27.9259808 64.6569285,25.76597 Z M64.6569285,21.56597 L64.6569285,14.08597 C64.0702589,12.9926312 63.3169331,12.145973 62.3969285,11.54597 C61.4769239,10.945967 60.4702673,10.64597 59.3769285,10.64597 C57.5635861,10.64597 56.1369337,11.3059634 55.0969285,12.62597 C54.0569233,13.9459766 53.5369285,15.672626 53.5369285,17.80597 C53.5369285,19.9659808 54.0569233,21.7059634 55.0969285,23.02597 C56.1369337,24.3459766 57.5635861,25.00597 59.3769285,25.00597 C60.4702673,25.00597 61.4769239,24.705973 62.3969285,24.10597 C63.3169331,23.505967 64.0702589,22.6593088 64.6569285,21.56597 Z" id="Combined-Shape"></path>
                <polygon id="Path" points="72.2702618 0.925969973 72.2702618 26.92597 70.2702618 26.92597 70.2702618 0.925969973"></polygon>
                <polygon id="Path" points="77.8835951 9.16596997 77.8835951 26.92597 75.8835951 26.92597 75.8835951 9.16596997"></polygon>
                <path d="M77.8435951,2.80596997 C78.1102631,3.07263797 78.2435951,3.39263477 78.2435951,3.76596997 C78.2435951,4.13930517 78.1102631,4.45930197 77.8435951,4.72596997 C77.5769271,4.99263797 77.2569303,5.12596997 76.8835951,5.12596997 C76.5102599,5.12596997 76.1902631,4.99263797 75.9235951,4.72596997 C75.6569271,4.45930197 75.5235951,4.13930517 75.5235951,3.76596997 C75.5235951,3.39263477 75.6569271,3.07263797 75.9235951,2.80596997 C76.1902631,2.53930197 76.5102599,2.40596997 76.8835951,2.40596997 C77.2569303,2.40596997 77.5769271,2.53930197 77.8435951,2.80596997 Z" id="Path"></path>
                <path d="M81.4969284,26.92597 L81.4969284,9.16596997 L83.4969284,9.16596997 L83.4969284,12.00597 C84.083598,11.0992988 84.8769234,10.3393064 85.8769284,9.72596997 C86.8769334,9.11263357 87.9769224,8.80596997 89.1769284,8.80596997 C91.1502716,8.80596997 92.6702564,9.38596417 93.7369284,10.54597 C94.8036004,11.7059758 95.3369284,13.2459604 95.3369284,15.16597 L95.3369284,26.92597 L93.3769284,26.92597 L93.3769284,15.44597 C93.3769284,14.0059628 92.9969322,12.8459744 92.2369284,11.96597 C91.4769246,11.0859656 90.336936,10.64597 88.8169284,10.64597 C87.6435892,10.64597 86.5769332,11.0059664 85.6169284,11.72597 C84.6569236,12.4459736 83.950264,13.3659644 83.4969284,14.48597 L83.4969284,26.92597 L81.4969284,26.92597 Z" id="Path"></path>
                <path d="M110.590262,25.76597 L110.590262,23.88597 C110.056926,24.7126408 109.296933,25.4059672 108.310262,25.96597 C107.32359,26.5259728 106.256934,26.80597 105.110262,26.80597 C102.656916,26.80597 100.770268,25.939312 99.4502617,24.20597 C98.1302551,22.472628 97.4702617,20.339316 97.4702617,17.80597 C97.4702617,15.272624 98.1302551,13.139312 99.4502617,11.40597 C100.770268,9.67262797 102.656916,8.80596997 105.110262,8.80596997 C106.256934,8.80596997 107.32359,9.09263377 108.310262,9.66596997 C109.296933,10.2393062 110.056926,10.9392992 110.590262,11.76597 L110.590262,9.16596997 L112.590262,9.16596997 L112.590262,25.64597 C112.590262,28.3659836 111.916935,30.4526294 110.570262,31.90597 C109.223588,33.3593106 107.403606,34.08597 105.110262,34.08597 C103.083585,34.08597 101.443601,33.6126414 100.190262,32.66597 C98.9369221,31.7192986 98.1502633,30.3926452 97.8302617,28.68597 L99.8302617,28.68597 C100.416931,31.1393156 102.176914,32.36597 105.110262,32.36597 C106.87027,32.36597 108.22359,31.8059756 109.170262,30.68597 C110.116933,29.5659644 110.590262,27.9259808 110.590262,25.76597 Z M110.590262,21.56597 L110.590262,14.08597 C110.003592,12.9926312 109.250266,12.145973 108.330262,11.54597 C107.410257,10.945967 106.4036,10.64597 105.310262,10.64597 C103.496919,10.64597 102.070267,11.3059634 101.030262,12.62597 C99.9902565,13.9459766 99.4702617,15.672626 99.4702617,17.80597 C99.4702617,19.9659808 99.9902565,21.7059634 101.030262,23.02597 C102.070267,24.3459766 103.496919,25.00597 105.310262,25.00597 C106.4036,25.00597 107.410257,24.705973 108.330262,24.10597 C109.250266,23.505967 110.003592,22.6593088 110.590262,21.56597 Z" id="Combined-Shape"></path>
            </g>
        </g>
    </g>
</svg>