<svg xmlns="http://www.w3.org/2000/svg" viewBox="0 0 158 40"><defs><linearGradient id="a" x1="67.984%" x2="8.444%" y1="78.607%" y2="15.213%"><stop offset="0%" stop-color="#057CA0"/><stop offset="100%" stop-color="#15FDD9"/></linearGradient></defs><g fill="none" fill-rule="evenodd"><path fill="url(#a)" fill-rule="nonzero" d="M10.368 31.757c-.237 1.398-1.029 2.212-2.426 2.498-2.229.443-4.032-.134-5.34-1.82-.614-.784-1.2-1.653-1.86-2.732-.421-.67-.418-1.414-.012-2.214a.265.265 0 01.374-.107c.565.343.754.73.936 1.56.395 1.66 1.371 2.822 2.95 3.69.96.526 1.96.524 3.219.092.486-.17.738-.54.778-1.099.083-1.019-.258-1.753-1.13-2.34-.883-.627-1.665-1.3-2.924-2.471-.613-.515-.876-1.048-.448-1.603.297-.396.688-.437 1.17-.25.084.032.162.067.285.126l.184.086c1.313.6 2.286 1.421 2.855 2.506.663 1.21 1.687 1.761 3.521 2.15 1.764.38 3.647.416 5.564.118a7.487 7.487 0 001.789-.546 1.99 1.99 0 001.077-1.321c.313-1.463-.886-3.335-2.325-3.601-.275-.053-.54-.071-1.007-.08-.32-.007-.415-.01-.545-.015-.46-.039-.92-.072-1.57-.116l-.392-.026c-.995-.067-1.424-.098-1.983-.144a35.964 35.964 0 01-2.88-.43 1.502 1.502 0 01-.198-.048c-.182-.056-.362-.142-.714-.318a4.903 4.903 0 00-.2-.09.265.265 0 01-.14-.355c.395-.865.925-1.193 1.926-1.429l.154-.036c2.218-.517 4.446-.164 6.601.956 1.116.577 2.228.727 3.684.554 2.562-.338 5.049-1.212 7.587-2.603.233-.129.445-.238.834-.434.844-.425 1.191-.615 1.58-.88.505-.347.976-.809 1.33-1.308.487-.675.454-1.59-.064-2.286-.458-.612-1.07-.79-1.788-.516a189.6 189.6 0 00-.788.308l-.51.2c-2.077.815-3.068 1.187-4.287 1.581-3.475 1.163-6.162 1.564-8.94 1.108-.288-.05-.528-.073-1.07-.115-.642-.049-.947-.082-1.282-.15-1.1-.203-1.391-1.105-.576-1.865.58-.504 1.283-.93 2.088-1.283 2.263-.977 4.717-1.539 7.63-1.82a48.587 48.587 0 014.22-.232c.907-.025 1.72.063 2.443.286 1.114.339 2.035.119 3.065-.68l.438-.335.281-.213c1.82-1.378 2.656-2.096 3.504-3.118 1.217-1.498 2.114-2.99 2.7-4.564.1-.283.168-.566.265-1.064.081-.419.12-.617.148-.752l-.254.02c-.327.025-.483.045-.643.09-.424.112-.854.231-1.439.397l-.524.148c-1.141.324-1.708.48-2.383.651-.643.168-1.253.304-2.28.518l-.285.06c-.694.144-1.024.214-1.417.302-.57.125-.882.196-2.118.477-.98.223-1.533.347-2.14.478-.32.064-.584.105-1.147.185l-.422.06c-.467.07-.813.133-1.147.215-.514.123-.881.21-1.87.443-3.123.737-4.566 1.097-6.325 1.605-2.98.87-5.833 2.299-8.492 4.223a8.919 8.919 0 01-.597.418c-.274.18-.292.192-.397.264-1.521.999-2.76 2.097-3.755 3.376-.129.165-.273.33-.443.51-.187.197-.906.906-1.025 1.027a.265.265 0 01-.428-.07c-.322-.668-.202-1.083.276-1.668a22.533 22.533 0 014.174-3.918c4.574-3.323 9.604-5.528 15.116-6.619a602.907 602.907 0 013.756-.723C27.25 4 29.294 3.58 31.433 3.079c1.752-.407 3.167-.8 6.26-1.711l1.043-.306c.703-.206 1.275-.37 1.833-.528.234-.058.435-.102.621-.135l.215.056c.227.187.352.403.385.647.027.195.003.345-.072.631a2.373 2.373 0 00-.056.236c-.774 4.26-3.156 7.657-7.083 10.536a70.68 70.68 0 00-1.27.942.636.636 0 00-.087.082l-.13.155.186.246c.158.207.228.3.317.423 1.093 1.52 1.03 3.17-.208 4.56-.573.61-1.194 1.115-1.809 1.444-3.677 2.058-6.41 3.154-9.438 3.553a4.858 4.858 0 00-.82.214c-.048.028-.051.028-.17.147l.092.196.14.303c.055.117.1.212.146.302.07.14.138.265.203.375 1.514 2.376.311 5.185-2.87 5.575-3.055.346-5.341.319-7.585-.225a5.554 5.554 0 00-.536-.09l-.208-.027c-.067.495-.107.76-.164 1.077zm4.687-15.11c2.172.555 4.508.526 7.226.014 2.34-.442 6.02-1.842 7.057-2.633-.104-.061-.257-.08-.529-.086l-.098-.003a3.031 3.031 0 01-.205-.012c-2.37-.215-4.597-.001-8.18.644-1.572.28-3.005.735-4.312 1.383-.164.078-.32.175-.553.34l-.169.12c-.1.072-.18.128-.255.178l.018.055zm-3.837 6.337c1.66.646 3.996.836 5.085.417a.265.265 0 00.045-.472c-1.552-.969-3.644-1.155-5.15-.431-.208.1-.197.402.02.486z"/><g fill="#000"><path d="M55.164 5.926v1.84a3.672 3.672 0 00-1.8-.44c-.96 0-1.74.34-2.34 1.02-.6.68-.9 1.62-.9 2.82v3h4.16v1.72h-4.16v16.04h-1.96v-16.04h-2.88v-1.72h2.88v-3.2c0-1.6.466-2.9 1.4-3.9.933-1 2.133-1.5 3.6-1.5.72 0 1.386.12 2 .36zM59.497 5.926v26h-2v-26zM74.67 26.766h1.92c-.346 1.68-1.126 3.02-2.34 4.02-1.213 1-2.726 1.5-4.54 1.5-2.346 0-4.246-.853-5.7-2.56-1.453-1.707-2.18-3.933-2.18-6.68 0-2.693.714-4.907 2.14-6.64 1.427-1.733 3.327-2.6 5.7-2.6 2.294 0 4.067.793 5.32 2.38 1.254 1.587 1.88 3.687 1.88 6.3v.72H63.79c.027 2.24.587 4.02 1.68 5.34 1.094 1.32 2.507 1.98 4.24 1.98 1.254 0 2.327-.333 3.22-1 .894-.667 1.474-1.587 1.74-2.76zm-5-11.2c-1.6 0-2.913.547-3.94 1.64-1.026 1.093-1.646 2.573-1.86 4.44h11c-.053-1.707-.52-3.147-1.4-4.32-.88-1.173-2.146-1.76-3.8-1.76zM92.204 31.926v-2.64c-.534.827-1.3 1.533-2.3 2.12-1 .587-2.074.88-3.22.88-2.507 0-4.427-.887-5.76-2.66-1.334-1.773-2-3.967-2-6.58s.666-4.807 2-6.58c1.333-1.773 3.253-2.66 5.76-2.66 1.146 0 2.22.293 3.22.88s1.766 1.293 2.3 2.12V5.926h1.96v26h-1.96zm0-5v-7.76c-.587-1.12-1.354-1.987-2.3-2.6a5.523 5.523 0 00-3.06-.92c-1.814 0-3.254.687-4.32 2.06-1.067 1.373-1.6 3.153-1.6 5.34s.533 3.967 1.6 5.34c1.066 1.373 2.506 2.06 4.32 2.06a5.523 5.523 0 003.06-.92c.946-.613 1.713-1.48 2.3-2.6zM109.657 30.766v-1.88c-.533.827-1.293 1.52-2.28 2.08-.987.56-2.053.84-3.2.84-2.453 0-4.34-.867-5.66-2.6-1.32-1.733-1.98-3.867-1.98-6.4 0-2.533.66-4.667 1.98-6.4 1.32-1.733 3.207-2.6 5.66-2.6a6.26 6.26 0 013.2.86c.987.573 1.747 1.273 2.28 2.1v-2.6h2v16.48c0 2.72-.673 4.807-2.02 6.26-1.347 1.453-3.167 2.18-5.46 2.18-2.027 0-3.667-.473-4.92-1.42-1.253-.947-2.04-2.273-2.36-3.98h2c.587 2.453 2.347 3.68 5.28 3.68 1.76 0 3.113-.56 4.06-1.68.947-1.12 1.42-2.76 1.42-4.92zm0-4.2v-7.48c-.587-1.093-1.34-1.94-2.26-2.54-.92-.6-1.927-.9-3.02-.9-1.813 0-3.24.66-4.28 1.98-1.04 1.32-1.56 3.047-1.56 5.18 0 2.16.52 3.9 1.56 5.22 1.04 1.32 2.467 1.98 4.28 1.98 1.093 0 2.1-.3 3.02-.9.92-.6 1.673-1.447 2.26-2.54zM117.27 5.926v26h-2v-26zM122.884 14.166v17.76h-2v-17.76zM122.844 7.806c.266.267.4.587.4.96s-.134.693-.4.96a1.31 1.31 0 01-.96.4 1.31 1.31 0 01-.96-.4 1.31 1.31 0 01-.4-.96c0-.373.133-.693.4-.96.266-.267.586-.4.96-.4.373 0 .693.133.96.4zM126.497 31.926v-17.76h2v2.84c.587-.907 1.38-1.667 2.38-2.28 1-.613 2.1-.92 3.3-.92 1.973 0 3.493.58 4.56 1.74 1.067 1.16 1.6 2.7 1.6 4.62v11.76h-1.96v-11.48c0-1.44-.38-2.6-1.14-3.48-.76-.88-1.9-1.32-3.42-1.32-1.173 0-2.24.36-3.2 1.08a6.376 6.376 0 00-2.12 2.76v12.44h-2zM155.59 30.766v-1.88c-.533.827-1.293 1.52-2.28 2.08-.986.56-2.053.84-3.2.84-2.453 0-4.34-.867-5.66-2.6-1.32-1.733-1.98-3.867-1.98-6.4 0-2.533.66-4.667 1.98-6.4 1.32-1.733 3.207-2.6 5.66-2.6a6.26 6.26 0 013.2.86c.987.573 1.747 1.273 2.28 2.1v-2.6h2v16.48c0 2.72-.673 4.807-2.02 6.26-1.346 1.453-3.166 2.18-5.46 2.18-2.026 0-3.666-.473-4.92-1.42-1.253-.947-2.04-2.273-2.36-3.98h2c.587 2.453 2.347 3.68 5.28 3.68 1.76 0 3.114-.56 4.06-1.68.947-1.12 1.42-2.76 1.42-4.92zm0-4.2v-7.48c-.586-1.093-1.34-1.94-2.26-2.54-.92-.6-1.926-.9-3.02-.9-1.813 0-3.24.66-4.28 1.98-1.04 1.32-1.56 3.047-1.56 5.18 0 2.16.52 3.9 1.56 5.22 1.04 1.32 2.467 1.98 4.28 1.98 1.094 0 2.1-.3 3.02-.9.92-.6 1.674-1.447 2.26-2.54z"/></g></g></svg>